# Blender v3.2.2 OBJ File: ''
# www.blender.org
mtllib pistol40cal.mtl
o Plane.001
v 0.041739 -0.121581 0.138088
v 0.042219 -0.136611 0.250417
v 0.041527 -0.165180 0.184025
v 0.041186 -0.213835 0.209633
v 0.042104 -0.283941 0.324089
v 0.041737 -0.243656 0.241265
v 0.041529 -0.306631 0.239432
v 0.041526 -0.205318 0.119280
v 0.041531 -0.252867 0.063998
v 0.042650 -0.063199 0.055429
v 0.042387 0.069178 0.561587
v 0.042022 0.273879 0.560868
v 0.042115 0.295556 0.480269
v 0.042664 0.065212 0.512541
v 0.043173 0.068594 0.143944
v 0.042117 0.291348 -0.481245
v 0.042119 0.245145 -0.540393
v 0.042386 0.242955 -0.564179
v 0.042431 0.118489 -0.546452
v 0.042431 0.109059 -0.535510
v 0.042389 -0.053448 -0.530830
v 0.076427 0.072101 0.549695
v 0.076715 0.070967 0.498391
v 0.076709 0.290043 0.462356
v 0.076424 0.267964 0.548848
v 0.077078 0.070663 0.135323
v 0.076713 0.285969 -0.460774
v 0.076711 0.240978 -0.526289
v 0.076429 0.240057 -0.555122
v 0.076713 0.119181 -0.534329
v 0.076713 0.108620 -0.523663
v 0.076432 -0.052966 0.039931
v 0.076427 -0.048637 -0.518002
v 0.056271 -0.285164 0.335617
v 0.056338 -0.130927 0.258427
v 0.041875 -0.472192 0.567186
v 0.041874 -0.421639 0.646658
v 0.056154 -0.418554 0.642445
v 0.056268 -0.465814 0.566678
v 0.056160 0.055168 0.504703
v 0.056275 0.051959 0.186805
v 0.041876 -0.444505 0.383072
v 0.056269 -0.439188 0.389850
v 0.041876 -0.363260 0.645191
v 0.041880 -0.077835 0.514348
v 0.056269 -0.081285 0.506554
v 0.056383 -0.364521 0.632158
v 0.056161 -0.061505 0.073527
v 0.022375 0.330514 0.535830
v 0.022376 0.315208 -0.519789
v 0.000000 0.069096 0.561926
v 0.000000 0.060557 0.518383
v 0.000000 -0.363296 0.645343
v 0.000000 -0.077804 0.514463
v 0.000000 0.120090 -0.560786
v 0.000000 0.243038 -0.564576
v 0.000000 -0.308241 0.239425
v 0.000000 -0.288552 0.326317
v 0.000000 0.272770 0.562369
v 0.000000 -0.472306 0.567235
v 0.000000 -0.421719 0.646752
v 0.000000 0.109184 -0.549675
v 0.000000 -0.444635 0.383034
v 0.000000 0.331271 0.535936
v 0.000000 -0.137799 0.253446
v 0.000000 -0.240902 0.239119
v 0.000000 -0.053559 -0.531243
v 0.000000 0.300051 0.471236
v 0.000000 0.296155 -0.483639
v 0.000000 -0.204070 0.120668
v 0.000000 -0.065510 0.043435
v 0.000000 -0.214932 0.209493
v 0.000000 0.316020 -0.519789
v 0.000000 -0.165964 0.182309
v 0.000000 0.247907 -0.552843
v 0.000000 -0.254132 0.062514
v 0.000000 -0.123087 0.137500
v -0.041739 -0.121581 0.138088
v -0.041527 -0.165180 0.184025
v -0.042219 -0.136611 0.250417
v -0.041186 -0.213835 0.209633
v -0.042104 -0.283941 0.324089
v -0.041737 -0.243656 0.241265
v -0.041529 -0.306631 0.239432
v -0.041526 -0.205318 0.119280
v -0.041531 -0.252867 0.063998
v -0.042650 -0.063199 0.055429
v -0.042387 0.069178 0.561587
v -0.042664 0.065212 0.512541
v -0.042115 0.295556 0.480269
v -0.042022 0.273879 0.560868
v -0.043173 0.068594 0.143944
v -0.042117 0.291348 -0.481245
v -0.042119 0.245145 -0.540393
v -0.042386 0.242955 -0.564179
v -0.042431 0.118489 -0.546452
v -0.042431 0.109059 -0.535510
v -0.042389 -0.053448 -0.530830
v -0.076427 0.072101 0.549695
v -0.076424 0.267964 0.548848
v -0.076709 0.290043 0.462356
v -0.076715 0.070967 0.498391
v -0.077078 0.070663 0.135323
v -0.076713 0.285969 -0.460774
v -0.076711 0.240978 -0.526289
v -0.076429 0.240057 -0.555122
v -0.076713 0.119181 -0.534329
v -0.076713 0.108620 -0.523663
v -0.076432 -0.052966 0.039931
v -0.076427 -0.048637 -0.518002
v -0.056338 -0.130927 0.258427
v -0.056271 -0.285164 0.335617
v -0.041875 -0.472192 0.567186
v -0.056268 -0.465814 0.566678
v -0.056154 -0.418554 0.642445
v -0.041874 -0.421639 0.646658
v -0.056275 0.051959 0.186805
v -0.056160 0.055168 0.504703
v -0.041876 -0.444505 0.383072
v -0.056269 -0.439188 0.389850
v -0.041876 -0.363260 0.645191
v -0.056383 -0.364521 0.632158
v -0.056269 -0.081285 0.506554
v -0.041880 -0.077835 0.514348
v -0.056161 -0.061505 0.073527
v -0.022375 0.330514 0.535830
v -0.022376 0.315208 -0.519789
vt 0.421334 0.395103
vt 0.344845 0.384868
vt 0.390054 0.365415
vt 0.372616 0.332284
vt 0.294680 0.284546
vt 0.351077 0.311978
vt 0.352325 0.269096
vt 0.434141 0.338083
vt 0.471785 0.305705
vt 0.477619 0.434857
vt 0.132959 0.524997
vt 0.133448 0.664385
vt 0.188331 0.679146
vt 0.166356 0.522296
vt 0.417346 0.524600
vt 0.843060 0.676281
vt 0.883335 0.644819
vt 0.899532 0.643328
vt 0.887462 0.558575
vt 0.880011 0.552154
vt 0.876824 0.441497
vt 0.141056 0.526987
vt 0.175991 0.526215
vt 0.200529 0.675392
vt 0.141633 0.660357
vt 0.423217 0.526009
vt 0.829120 0.672618
vt 0.873732 0.641982
vt 0.893365 0.641355
vt 0.879206 0.559046
vt 0.871944 0.551855
vt 0.488173 0.441825
vt 0.868089 0.444773
vt 0.339391 0.388739
vt 0.286830 0.283713
vt 0.129146 0.156360
vt 0.129492 0.160702
vt 0.077899 0.192884
vt 0.075031 0.190782
vt 0.171693 0.515457
vt 0.388161 0.513273
vt 0.254516 0.175212
vt 0.249900 0.178833
vt 0.076030 0.230536
vt 0.084904 0.229676
vt 0.170433 0.422542
vt 0.165125 0.424891
vt 0.465296 0.436010
vt 0.150497 0.702950
vt 0.869305 0.692528
vt 0.132728 0.524942
vt 0.162378 0.519127
vt 0.165047 0.424912
vt 0.075926 0.230511
vt 0.897222 0.559665
vt 0.899803 0.643385
vt 0.293162 0.281406
vt 0.352330 0.267999
vt 0.132426 0.663630
vt 0.074967 0.190729
vt 0.129113 0.156282
vt 0.889656 0.552239
vt 0.254541 0.175124
vt 0.150425 0.703466
vt 0.352538 0.313853
vt 0.342783 0.384059
vt 0.877105 0.441421
vt 0.194482 0.682207
vt 0.844689 0.679554
vt 0.433196 0.338933
vt 0.485787 0.433283
vt 0.372712 0.331537
vt 0.869306 0.693081
vt 0.391223 0.364881
vt 0.891813 0.646700
vt 0.472795 0.304844
vt 0.421735 0.394077
vt 0.421334 0.395103
vt 0.390054 0.365415
vt 0.344845 0.384868
vt 0.372616 0.332284
vt 0.294680 0.284546
vt 0.351077 0.311978
vt 0.352325 0.269096
vt 0.434141 0.338083
vt 0.471785 0.305705
vt 0.477619 0.434857
vt 0.132959 0.524997
vt 0.166356 0.522296
vt 0.188331 0.679146
vt 0.133448 0.664385
vt 0.417346 0.524600
vt 0.843060 0.676281
vt 0.883335 0.644819
vt 0.899532 0.643328
vt 0.887462 0.558575
vt 0.880011 0.552154
vt 0.876824 0.441497
vt 0.141056 0.526987
vt 0.141633 0.660357
vt 0.200529 0.675392
vt 0.175991 0.526215
vt 0.423217 0.526009
vt 0.829120 0.672618
vt 0.873732 0.641982
vt 0.893365 0.641355
vt 0.879206 0.559046
vt 0.871944 0.551855
vt 0.488173 0.441825
vt 0.868089 0.444773
vt 0.286830 0.283713
vt 0.339391 0.388739
vt 0.129146 0.156360
vt 0.075031 0.190782
vt 0.077899 0.192884
vt 0.129492 0.160702
vt 0.388161 0.513273
vt 0.171693 0.515457
vt 0.254516 0.175212
vt 0.249900 0.178833
vt 0.076030 0.230536
vt 0.165125 0.424891
vt 0.170433 0.422542
vt 0.084904 0.229676
vt 0.465296 0.436010
vt 0.150497 0.702950
vt 0.869305 0.692528
vn 0.9999 -0.0109 -0.0057
vn 0.9999 -0.0105 -0.0059
vn 0.9999 -0.0106 -0.0059
vn 0.9999 -0.0102 -0.0060
vn 1.0000 -0.0035 -0.0061
vn 1.0000 -0.0032 -0.0067
vn 1.0000 -0.0040 -0.0064
vn 1.0000 -0.0022 -0.0035
vn 1.0000 -0.0017 -0.0009
vn 1.0000 -0.0053 0.0058
vn 1.0000 -0.0028 -0.0076
vn 0.9999 -0.0105 -0.0127
vn -1.0000 -0.0023 -0.0032
vn -1.0000 -0.0025 -0.0029
vn -1.0000 -0.0032 -0.0019
vn -1.0000 0.0001 0.0012
vn -1.0000 -0.0034 0.0000
vn -1.0000 -0.0016 0.0011
vn -1.0000 -0.0025 0.0005
vn -1.0000 0.0007 0.0011
vn -1.0000 0.0015 0.0011
vn -1.0000 0.0017 0.0009
vn 1.0000 0.0004 0.0042
vn 1.0000 0.0014 0.0005
vn 1.0000 0.0006 0.0039
vn 1.0000 -0.0011 -0.0011
vn 1.0000 0.0009 -0.0001
vn 1.0000 0.0002 -0.0008
vn 1.0000 0.0001 -0.0009
vn 1.0000 -0.0001 -0.0008
vn 1.0000 -0.0027 -0.0004
vn 1.0000 -0.0032 -0.0004
vn 0.2335 -0.7137 -0.6603
vn 0.1130 -0.9936 -0.0040
vn 0.3765 0.7477 -0.5470
vn 0.3413 -0.0307 -0.9395
vn 0.3676 -0.5445 0.7539
vn 0.1454 -0.9880 0.0510
vn 0.1218 0.9908 -0.0586
vn 0.1557 0.9878 -0.0043
vn 0.2610 0.9337 0.2451
vn 0.3300 0.0040 0.9440
vn 0.2885 -0.1481 -0.9460
vn 0.2161 -0.9763 -0.0121
vn 0.9996 -0.0267 -0.0078
vn 0.7873 -0.4990 -0.3621
vn 0.7921 -0.4651 -0.3953
vn 0.5669 -0.3688 -0.7366
vn 0.3445 -0.7941 0.5006
vn 0.7076 0.7066 0.0008
vn 0.3982 -0.9071 -0.1365
vn 0.5865 0.3331 0.7383
vn 0.3980 0.2526 0.8819
vn 0.6797 0.0855 0.7285
vn 0.4927 0.0102 0.8701
vn 1.0000 -0.0000 -0.0010
vn 1.0000 0.0004 0.0001
vn 1.0000 0.0006 0.0003
vn 1.0000 0.0003 0.0001
vn 1.0000 -0.0012 0.0008
vn 1.0000 0.0000 -0.0002
vn 1.0000 -0.0004 -0.0004
vn 1.0000 -0.0029 0.0028
vn 1.0000 -0.0035 0.0037
vn 0.9052 0.2686 -0.3293
vn 0.5031 -0.8090 -0.3038
vn 0.5078 0.0886 0.8569
vn 0.5459 -0.2841 -0.7882
vn 0.9257 0.3650 0.0992
vn 0.9070 0.3318 -0.2592
vn 0.0648 -0.9889 0.1338
vn 0.2534 0.2357 0.9382
vn -0.2224 0.2045 0.9533
vn 0.0000 0.4167 0.9090
vn 0.0029 0.4167 0.9090
vn 0.1688 -0.0854 -0.9819
vn 0.0783 -0.9679 0.2388
vn 0.0218 0.0007 0.9998
vn 0.0029 -0.8437 0.5367
vn -0.0000 -0.8437 0.5367
vn 0.2081 -0.7191 -0.6631
vn -0.0051 -0.3432 -0.9393
vn -0.0000 -0.3432 -0.9393
vn 0.0205 0.4109 0.9114
vn 0.0029 0.0246 0.9997
vn -0.0000 0.0246 0.9997
vn -0.0084 0.1111 -0.9938
vn 0.0000 0.1111 -0.9938
vn 0.9969 -0.0096 0.0783
vn 0.9942 -0.0948 -0.0500
vn 0.1690 -0.0699 -0.9831
vn 0.1352 0.8773 -0.4606
vn 0.0707 -0.0077 0.9975
vn 0.1103 0.9939 -0.0042
vn 0.0431 0.9536 0.2981
vn 0.0312 -0.9993 -0.0187
vn 0.7645 -0.4784 -0.4321
vn 0.7546 -0.5494 -0.3588
vn 0.0029 -0.9889 -0.1486
vn -0.0000 -0.9889 -0.1486
vn 0.0435 -0.4810 0.8756
vn 0.0000 -0.4814 0.8765
vn 0.0573 0.8681 0.4930
vn 0.0390 -0.7231 -0.6897
vn 0.0305 -0.4755 -0.8792
vn 0.0003 -0.4487 -0.8937
vn -0.0000 -0.4733 -0.8809
vn 0.1956 0.3792 -0.9044
vn 0.1607 -0.0724 -0.9843
vn 0.8953 -0.4234 0.1388
vn 0.0006 -0.1494 0.9888
vn 0.0100 -0.2115 0.9773
vn 0.0625 0.9790 -0.1941
vn 0.0383 -0.9555 -0.2925
vn -0.9999 -0.0109 -0.0057
vn -0.9999 -0.0106 -0.0059
vn -0.9999 -0.0105 -0.0059
vn -0.9999 -0.0102 -0.0060
vn -1.0000 -0.0035 -0.0061
vn -1.0000 -0.0040 -0.0064
vn -1.0000 -0.0032 -0.0067
vn -1.0000 -0.0022 -0.0035
vn -1.0000 -0.0017 -0.0009
vn -1.0000 -0.0053 0.0058
vn -0.9999 -0.0105 -0.0127
vn -1.0000 -0.0028 -0.0076
vn 1.0000 -0.0023 -0.0032
vn 1.0000 -0.0032 -0.0019
vn 1.0000 -0.0025 -0.0029
vn 1.0000 0.0001 0.0012
vn 1.0000 -0.0031 0.0002
vn 1.0000 -0.0016 0.0011
vn 1.0000 -0.0025 0.0005
vn 1.0000 0.0007 0.0011
vn 1.0000 0.0015 0.0011
vn 1.0000 0.0017 0.0009
vn -1.0000 0.0004 0.0042
vn -1.0000 0.0006 0.0038
vn -1.0000 0.0014 0.0005
vn -1.0000 -0.0011 -0.0011
vn -1.0000 0.0009 -0.0001
vn -1.0000 0.0002 -0.0008
vn -1.0000 0.0001 -0.0009
vn -1.0000 -0.0001 -0.0008
vn -1.0000 -0.0029 -0.0004
vn -1.0000 -0.0032 -0.0004
vn -0.2335 -0.7137 -0.6603
vn -0.1130 -0.9936 -0.0040
vn -0.3765 0.7477 -0.5470
vn -0.3413 -0.0307 -0.9395
vn -0.3676 -0.5445 0.7539
vn -0.1454 -0.9880 0.0510
vn -0.1218 0.9908 -0.0586
vn -0.1557 0.9878 -0.0043
vn -0.2610 0.9337 0.2451
vn -0.3300 0.0040 0.9440
vn -0.2885 -0.1481 -0.9460
vn -0.2161 -0.9763 -0.0121
vn -0.9996 -0.0267 -0.0078
vn -0.7873 -0.4990 -0.3621
vn -0.5669 -0.3688 -0.7366
vn -0.7921 -0.4651 -0.3953
vn -0.3445 -0.7941 0.5006
vn -0.7076 0.7066 0.0008
vn -0.3982 -0.9071 -0.1365
vn -0.5865 0.3331 0.7383
vn -0.3921 0.2324 0.8901
vn -0.6855 0.1057 0.7203
vn -0.4927 0.0102 0.8701
vn -1.0000 0.0003 -0.0003
vn -1.0000 -0.0000 -0.0010
vn -1.0000 0.0003 -0.0001
vn -1.0000 0.0003 0.0001
vn -1.0000 0.0006 0.0003
vn -1.0000 0.0000 -0.0002
vn -1.0000 -0.0012 0.0008
vn -1.0000 -0.0004 -0.0004
vn -1.0000 -0.0029 0.0028
vn -1.0000 -0.0035 0.0037
vn -0.9052 0.2686 -0.3293
vn -0.5031 -0.8090 -0.3038
vn -0.5078 0.0886 0.8569
vn -0.5459 -0.2841 -0.7882
vn -0.9257 0.3650 0.0992
vn -0.9070 0.3318 -0.2592
vn -0.0648 -0.9889 0.1338
vn 0.1798 0.1728 0.9684
vn -0.0029 0.4167 0.9090
vn -0.1688 -0.0854 -0.9819
vn -0.0783 -0.9679 0.2388
vn -0.0218 0.0007 0.9998
vn -0.0029 -0.8437 0.5367
vn -0.2081 -0.7191 -0.6631
vn 0.0051 -0.3432 -0.9393
vn -0.0205 0.4109 0.9114
vn -0.0029 0.0246 0.9997
vn 0.0084 0.1111 -0.9938
vn -0.5545 0.5414 0.6321
vn -0.1690 -0.0699 -0.9831
vn -0.1352 0.8773 -0.4606
vn -0.0707 -0.0077 0.9975
vn -0.1103 0.9939 -0.0042
vn -0.0431 0.9536 0.2981
vn -0.0312 -0.9993 -0.0187
vn -0.7546 -0.5494 -0.3588
vn -0.7645 -0.4784 -0.4321
vn -0.0029 -0.9889 -0.1486
vn -0.0435 -0.4810 0.8756
vn -0.6119 0.7637 -0.2059
vn -0.0573 0.8681 0.4930
vn -0.0390 -0.7231 -0.6897
vn -0.0305 -0.4755 -0.8792
vn -0.1956 0.3792 -0.9044
vn -0.1607 -0.0724 -0.9843
vn -0.8953 -0.4234 0.1388
vn -0.0100 -0.2115 0.9773
vn -0.0625 0.9790 -0.1941
vn -0.0383 -0.9555 -0.2925
usemtl None
s 1
f 1/1/1 2/2/2 3/3/3
f 2/2/2 4/4/4 3/3/3
f 5/5/5 6/6/6 2/2/7
f 5/5/5 7/7/8 6/6/6
f 8/8/9 6/6/6 7/7/8 9/9/10
f 9/9/10 10/10/11 1/1/12 8/8/9
f 11/11/13 12/12/13 13/13/14 14/14/15
f 15/15/16 14/14/15 13/13/14 16/16/17
f 16/16/17 17/17/18 15/15/16
f 18/18/19 19/19/20 15/15/16 17/17/18
f 20/20/21 15/15/16 19/19/20
f 10/10/22 15/15/16 20/20/21 21/21/22
f 22/22/23 23/23/24 24/24/25 25/25/23
f 26/26/26 27/27/27 24/24/25 23/23/24
f 27/27/27 26/26/26 28/28/28
f 29/29/29 28/28/28 26/26/26 30/30/30
f 31/31/31 30/30/30 26/26/26
f 32/32/32 33/33/32 31/31/31 26/26/26
f 20/20/33 19/19/33 30/30/33 31/31/33
f 14/14/34 15/15/34 26/26/34 23/23/34
f 17/17/35 16/16/35 27/27/35 28/28/35
f 21/21/36 20/20/36 31/31/36 33/33/36
f 15/15/37 10/10/37 32/32/37 26/26/37
f 11/11/38 14/14/38 23/23/38 22/22/38
f 18/18/39 17/17/39 28/28/39 29/29/39
f 16/16/40 13/13/40 24/24/40 27/27/40
f 13/13/41 12/12/41 25/25/41 24/24/41
f 12/12/42 11/11/42 22/22/42 25/25/42
f 19/19/43 18/18/43 29/29/43 30/30/43
f 10/10/44 21/21/44 33/33/44 32/32/44
f 1/1/12 10/10/11 2/2/45
f 2/2/46 35/34/47 34/35/48 5/5/48
f 36/36/49 39/37/49 38/38/49 37/39/49
f 15/15/50 14/14/50 40/40/50 41/41/50
f 42/42/51 43/43/51 39/37/51 36/36/51
f 44/44/52 47/45/52 46/46/53 45/47/54
f 14/14/55 45/47/54 46/46/53 40/40/55
f 41/41/56 35/34/56 48/48/56
f 35/34/57 41/41/58 40/40/58 46/46/59
f 35/34/57 46/46/59 47/45/60 34/35/61
f 34/35/61 47/45/60 43/43/62
f 39/37/63 43/43/62 47/45/60
f 38/38/64 39/37/63 47/45/60
f 10/10/65 15/15/65 41/41/65 48/48/65
f 2/2/46 10/10/66 48/48/66 35/34/47
f 37/39/67 38/38/67 47/45/67 44/44/67
f 5/5/68 34/35/68 43/43/68 42/42/68
f 12/12/69 13/13/69 49/49/69
f 16/16/70 17/17/70 50/50/70
f 14/14/71 11/11/71 51/51/71 52/52/71
f 45/47/72 54/53/73 53/54/74 44/44/75
f 18/18/76 19/19/76 55/55/76 56/56/76
f 5/5/77 58/57/77 57/58/77 7/7/77
f 11/11/78 12/12/78 59/59/78 51/51/78
f 37/39/79 61/60/80 60/61/80 36/36/79
f 19/19/81 20/20/81 62/62/81 55/55/81
f 42/42/82 63/63/83 58/57/83 5/5/82
f 12/12/84 49/49/84 64/64/84 59/59/84
f 44/44/85 53/54/86 61/60/86 37/39/85
f 6/6/87 66/65/88 65/66/89 2/2/90
f 20/20/91 21/21/91 67/67/91 62/62/91
f 49/49/92 13/13/92 68/68/92 64/64/92
f 45/47/72 14/14/93 52/52/93 54/53/73
f 13/13/94 16/16/94 69/69/94 68/68/94
f 8/8/95 70/70/95 66/65/95 6/6/95
f 21/21/96 10/10/97 71/71/98 67/67/96
f 36/36/99 60/61/100 63/63/100 42/42/99
f 4/4/101 2/2/90 65/66/89 72/72/102
f 16/16/103 50/50/103 73/73/103 69/69/103
f 3/3/104 4/4/105 72/72/106 74/74/107
f 50/50/108 17/17/108 75/75/108 73/73/108
f 9/9/109 76/76/109 71/71/98 10/10/97
f 1/1/110 77/77/111 70/70/112 8/8/112
f 1/1/110 3/3/104 74/74/107 77/77/111
f 17/17/113 18/18/113 56/56/113 75/75/113
f 7/7/114 57/58/114 76/76/114 9/9/114
f 78/78/115 79/79/116 80/80/117
f 80/80/117 79/79/116 81/81/118
f 82/82/119 80/80/120 83/83/121
f 82/82/119 83/83/121 84/84/122
f 85/85/123 86/86/124 84/84/122 83/83/121
f 86/86/124 85/85/123 78/78/125 87/87/126
f 88/88/127 89/89/128 90/90/129 91/91/127
f 92/92/130 93/93/131 90/90/129 89/89/128
f 93/93/131 92/92/130 94/94/132
f 95/95/133 94/94/132 92/92/130 96/96/134
f 97/97/135 96/96/134 92/92/130
f 87/87/136 98/98/136 97/97/135 92/92/130
f 99/99/137 100/100/137 101/101/138 102/102/139
f 103/103/140 102/102/139 101/101/138 104/104/141
f 104/104/141 105/105/142 103/103/140
f 106/106/143 107/107/144 103/103/140 105/105/142
f 108/108/145 103/103/140 107/107/144
f 109/109/146 103/103/140 108/108/145 110/110/146
f 97/97/147 108/108/147 107/107/147 96/96/147
f 89/89/148 102/102/148 103/103/148 92/92/148
f 94/94/149 105/105/149 104/104/149 93/93/149
f 98/98/150 110/110/150 108/108/150 97/97/150
f 92/92/151 103/103/151 109/109/151 87/87/151
f 88/88/152 99/99/152 102/102/152 89/89/152
f 95/95/153 106/106/153 105/105/153 94/94/153
f 93/93/154 104/104/154 101/101/154 90/90/154
f 90/90/155 101/101/155 100/100/155 91/91/155
f 91/91/156 100/100/156 99/99/156 88/88/156
f 96/96/157 107/107/157 106/106/157 95/95/157
f 87/87/158 109/109/158 110/110/158 98/98/158
f 78/78/125 80/80/159 87/87/126
f 80/80/160 82/82/161 112/111/161 111/112/162
f 113/113/163 116/114/163 115/115/163 114/116/163
f 92/92/164 117/117/164 118/118/164 89/89/164
f 119/119/165 113/113/165 114/116/165 120/120/165
f 121/121/166 124/122/167 123/123/168 122/124/166
f 89/89/169 118/118/169 123/123/168 124/122/167
f 117/117/170 125/125/171 111/112/172
f 111/112/172 123/123/173 118/118/174 117/117/170
f 111/112/172 112/111/175 122/124/176 123/123/173
f 112/111/175 120/120/177 122/124/176
f 114/116/178 122/124/176 120/120/177
f 115/115/179 122/124/176 114/116/178
f 87/87/180 125/125/180 117/117/180 92/92/180
f 80/80/160 111/112/162 125/125/181 87/87/181
f 116/114/182 121/121/182 122/124/182 115/115/182
f 82/82/183 119/119/183 120/120/183 112/111/183
f 91/91/184 126/126/184 90/90/184
f 93/93/185 127/127/185 94/94/185
f 89/89/186 52/52/186 51/51/186 88/88/186
f 124/122/187 121/121/188 53/54/74 54/53/73
f 95/95/189 56/56/189 55/55/189 96/96/189
f 82/82/190 84/84/190 57/58/190 58/57/190
f 88/88/191 51/51/191 59/59/191 91/91/191
f 116/114/192 113/113/192 60/61/80 61/60/80
f 96/96/193 55/55/193 62/62/193 97/97/193
f 119/119/194 82/82/194 58/57/83 63/63/83
f 91/91/195 59/59/195 64/64/195 126/126/195
f 121/121/196 116/114/196 61/60/86 53/54/86
f 83/83/197 80/80/198 65/66/89 66/65/88
f 97/97/199 62/62/199 67/67/199 98/98/199
f 126/126/200 64/64/200 68/68/200 90/90/200
f 124/122/187 54/53/73 52/52/201 89/89/201
f 90/90/202 68/68/202 69/69/202 93/93/202
f 85/85/203 83/83/203 66/65/203 70/70/203
f 98/98/204 67/67/204 71/71/205 87/87/206
f 113/113/207 119/119/207 63/63/100 60/61/100
f 81/81/208 72/72/102 65/66/89 80/80/209
f 93/93/210 69/69/210 73/73/210 127/127/210
f 79/79/211 74/74/107 72/72/106 81/81/212
f 127/127/213 73/73/213 75/75/213 94/94/213
f 86/86/214 87/87/206 71/71/205 76/76/214
f 78/78/215 85/85/216 70/70/216 77/77/111
f 78/78/215 77/77/111 74/74/107 79/79/211
f 94/94/217 75/75/217 56/56/217 95/95/217
f 84/84/218 86/86/218 76/76/218 57/58/218
